Normalized EMG Linear Envelopes
nRows=49
nColumns=17

endheader
time	        VM	        VL	        RF	       GRA	        TA	   ADDLONG	   SEMIMEM	      BFLH	        GM	        GL	       TFL	   GLUTMAX	   GLUTMED	      PIRI	    OBTINT	        QF	
1.8315	  0.366845	  0.400912	  0.087451	  0.125464	  0.169979	  0.053947	  0.311890	  0.424011	  0.753771	  0.593282	  0.110537	  0.221659	  0.462311	  1.191947	  4.289732	  0.514213	
1.832	  0.361107	  0.394702	  0.086197	  0.124844	  0.168756	  0.053938	  0.310243	  0.418520	  0.752723	  0.592663	  0.110604	  0.217658	  0.465080	  1.188366	  4.279187	  0.512074	
1.8325	  0.355380	  0.388502	  0.084945	  0.124228	  0.167526	  0.053932	  0.308577	  0.413042	  0.751574	  0.591974	  0.110654	  0.213684	  0.467929	  1.184555	  4.267793	  0.510023	
1.833	  0.349667	  0.382311	  0.083696	  0.123617	  0.166288	  0.053932	  0.306890	  0.407577	  0.750326	  0.591216	  0.110688	  0.209738	  0.470860	  1.180514	  4.255546	  0.508056	
1.8335	  0.343969	  0.376133	  0.082450	  0.123010	  0.165044	  0.053936	  0.305184	  0.402128	  0.748977	  0.590386	  0.110704	  0.205821	  0.473878	  1.176244	  4.242442	  0.506174	
1.834	  0.338286	  0.369969	  0.081208	  0.122405	  0.163795	  0.053946	  0.303458	  0.396696	  0.747527	  0.589486	  0.110702	  0.201934	  0.476986	  1.171748	  4.228477	  0.504375	
1.8345	  0.332621	  0.363820	  0.079969	  0.121804	  0.162541	  0.053960	  0.301711	  0.391282	  0.745978	  0.588516	  0.110681	  0.198077	  0.480187	  1.167026	  4.213652	  0.502657	
1.835	  0.326975	  0.357690	  0.078733	  0.121204	  0.161283	  0.053980	  0.299943	  0.385887	  0.744330	  0.587475	  0.110641	  0.194251	  0.483485	  1.162080	  4.197969	  0.501021	
1.8355	  0.321349	  0.351580	  0.077502	  0.120606	  0.160021	  0.054006	  0.298154	  0.380514	  0.742583	  0.586365	  0.110581	  0.190456	  0.486883	  1.156913	  4.181433	  0.499465	
1.836	  0.315746	  0.345493	  0.076276	  0.120009	  0.158757	  0.054037	  0.296345	  0.375162	  0.740739	  0.585185	  0.110501	  0.186694	  0.490383	  1.151527	  4.164052	  0.497989	
1.8365	  0.310167	  0.339429	  0.075054	  0.119412	  0.157490	  0.054074	  0.294513	  0.369833	  0.738799	  0.583936	  0.110401	  0.182965	  0.493989	  1.145924	  4.145835	  0.496593	
1.837	  0.304614	  0.333391	  0.073838	  0.118816	  0.156222	  0.054116	  0.292660	  0.364528	  0.736764	  0.582619	  0.110279	  0.179269	  0.497704	  1.140107	  4.126792	  0.495275	
1.8375	  0.299089	  0.327381	  0.072628	  0.118219	  0.154953	  0.054165	  0.290784	  0.359249	  0.734634	  0.581235	  0.110136	  0.175607	  0.501530	  1.134081	  4.106938	  0.494035	
1.838	  0.293593	  0.321401	  0.071424	  0.117621	  0.153683	  0.054220	  0.288887	  0.353995	  0.732411	  0.579782	  0.109971	  0.171980	  0.505470	  1.127848	  4.086285	  0.492872	
1.8385	  0.288129	  0.315451	  0.070226	  0.117021	  0.152414	  0.054281	  0.286966	  0.348767	  0.730095	  0.578262	  0.109785	  0.168387	  0.509527	  1.121412	  4.064849	  0.491786	
1.839	  0.282697	  0.309534	  0.069036	  0.116420	  0.151146	  0.054348	  0.285022	  0.343568	  0.727686	  0.576675	  0.109576	  0.164830	  0.513702	  1.114777	  4.042641	  0.490774	
1.8395	  0.277299	  0.303651	  0.067852	  0.115817	  0.149880	  0.054422	  0.283055	  0.338397	  0.725184	  0.575020	  0.109346	  0.161308	  0.518000	  1.107945	  4.019676	  0.489837	
1.84	  0.271937	  0.297804	  0.066677	  0.115212	  0.148615	  0.054502	  0.281065	  0.333255	  0.722591	  0.573297	  0.109093	  0.157823	  0.522423	  1.100920	  3.995966	  0.488973	
1.8405	  0.266612	  0.291994	  0.065510	  0.114604	  0.147354	  0.054589	  0.279052	  0.328142	  0.719905	  0.571506	  0.108819	  0.154375	  0.526973	  1.093704	  3.971527	  0.488181	
1.841	  0.261326	  0.286222	  0.064352	  0.113994	  0.146095	  0.054683	  0.277015	  0.323060	  0.717129	  0.569647	  0.108522	  0.150964	  0.531654	  1.086302	  3.946375	  0.487460	
1.8415	  0.256078	  0.280490	  0.063202	  0.113382	  0.144840	  0.054784	  0.274956	  0.318008	  0.714260	  0.567720	  0.108204	  0.147590	  0.536469	  1.078714	  3.920526	  0.486807	
1.842	  0.250872	  0.274799	  0.062062	  0.112767	  0.143590	  0.054892	  0.272873	  0.312987	  0.711300	  0.565724	  0.107863	  0.144254	  0.541421	  1.070945	  3.893997	  0.486222	
1.8425	  0.245707	  0.269152	  0.060931	  0.112150	  0.142344	  0.055007	  0.270768	  0.307998	  0.708248	  0.563662	  0.107501	  0.140957	  0.546514	  1.062999	  3.866805	  0.485704	
1.843	  0.240586	  0.263548	  0.059811	  0.111531	  0.141104	  0.055131	  0.268641	  0.303040	  0.705104	  0.561532	  0.107118	  0.137698	  0.551749	  1.054877	  3.838967	  0.485251	
1.8435	  0.235508	  0.257989	  0.058701	  0.110910	  0.139869	  0.055262	  0.266491	  0.298115	  0.701868	  0.559335	  0.106714	  0.134478	  0.557131	  1.046586	  3.810498	  0.484863	
1.844	  0.230476	  0.252477	  0.057601	  0.110288	  0.138640	  0.055401	  0.264319	  0.293223	  0.698539	  0.557073	  0.106290	  0.131298	  0.562662	  1.038128	  3.781415	  0.484538	
1.8445	  0.225490	  0.247012	  0.056512	  0.109664	  0.137418	  0.055548	  0.262125	  0.288363	  0.695118	  0.554744	  0.105845	  0.128157	  0.568347	  1.029510	  3.751732	  0.484274	
1.845	  0.220551	  0.241597	  0.055435	  0.109040	  0.136203	  0.055704	  0.259909	  0.283538	  0.691606	  0.552351	  0.105381	  0.125056	  0.574187	  1.020735	  3.721466	  0.484071	
1.8455	  0.215661	  0.236232	  0.054369	  0.108416	  0.134997	  0.055868	  0.257671	  0.278747	  0.688004	  0.549891	  0.104898	  0.121994	  0.580186	  1.011811	  3.690634	  0.483928	
1.846	  0.210819	  0.230917	  0.053315	  0.107793	  0.133798	  0.056042	  0.255411	  0.273990	  0.684311	  0.547367	  0.104396	  0.118973	  0.586346	  1.002741	  3.659253	  0.483843	
1.8465	  0.206028	  0.225656	  0.052273	  0.107172	  0.132609	  0.056224	  0.253130	  0.269269	  0.680528	  0.544777	  0.103876	  0.115993	  0.592671	  0.993533	  3.627340	  0.483814	
1.847	  0.201288	  0.220447	  0.051244	  0.106553	  0.131429	  0.056416	  0.250827	  0.264584	  0.676658	  0.542122	  0.103338	  0.113053	  0.599162	  0.984194	  3.594915	  0.483840	
1.8475	  0.196599	  0.215293	  0.050227	  0.105936	  0.130259	  0.056617	  0.248503	  0.259937	  0.672700	  0.539403	  0.102783	  0.110154	  0.605823	  0.974729	  3.561997	  0.483919	
1.848	  0.191963	  0.210194	  0.049222	  0.105323	  0.129100	  0.056827	  0.246157	  0.255326	  0.668656	  0.536619	  0.102211	  0.107295	  0.612655	  0.965146	  3.528607	  0.484049	
1.8485	  0.187380	  0.205151	  0.048231	  0.104714	  0.127951	  0.057048	  0.243791	  0.250755	  0.664528	  0.533771	  0.101622	  0.104478	  0.619660	  0.955452	  3.494766	  0.484228	
1.849	  0.182850	  0.200165	  0.047253	  0.104110	  0.126814	  0.057278	  0.241404	  0.246223	  0.660316	  0.530858	  0.101017	  0.101702	  0.626840	  0.945655	  3.460496	  0.484453	
1.8495	  0.178376	  0.195237	  0.046288	  0.103511	  0.125688	  0.057519	  0.238997	  0.241730	  0.656022	  0.527882	  0.100396	  0.098967	  0.634197	  0.935762	  3.425816	  0.484723	
1.85	  0.173956	  0.190367	  0.045337	  0.102918	  0.124574	  0.057770	  0.236572	  0.237278	  0.651647	  0.524842	  0.099759	  0.096274	  0.641733	  0.925781	  3.390747	  0.485035	
1.8505	  0.169593	  0.185556	  0.044399	  0.102331	  0.123473	  0.058032	  0.234130	  0.232868	  0.647192	  0.521738	  0.099108	  0.093622	  0.649449	  0.915719	  3.355310	  0.485386	
1.851	  0.165285	  0.180804	  0.043475	  0.101752	  0.122384	  0.058304	  0.231671	  0.228500	  0.642658	  0.518572	  0.098441	  0.091012	  0.657346	  0.905583	  3.319526	  0.485774	
1.8515	  0.161035	  0.176113	  0.042566	  0.101180	  0.121308	  0.058588	  0.229198	  0.224174	  0.638045	  0.515345	  0.097760	  0.088443	  0.665427	  0.895381	  3.283419	  0.486195	
1.852	  0.156841	  0.171483	  0.041670	  0.100616	  0.120244	  0.058883	  0.226711	  0.219891	  0.633356	  0.512056	  0.097064	  0.085916	  0.673691	  0.885120	  3.247011	  0.486648	
1.8525	  0.152706	  0.166914	  0.040789	  0.100060	  0.119195	  0.059190	  0.224212	  0.215652	  0.628590	  0.508707	  0.096355	  0.083430	  0.682140	  0.874806	  3.210329	  0.487127	
1.853	  0.148628	  0.162406	  0.039922	  0.099514	  0.118159	  0.059508	  0.221703	  0.211456	  0.623750	  0.505299	  0.095632	  0.080985	  0.690775	  0.864445	  3.173396	  0.487632	
1.8535	  0.144609	  0.157961	  0.039069	  0.098977	  0.117136	  0.059839	  0.219185	  0.207306	  0.618836	  0.501832	  0.094895	  0.078582	  0.699597	  0.854045	  3.136240	  0.488158	
1.854	  0.140648	  0.153577	  0.038231	  0.098450	  0.116128	  0.060182	  0.216660	  0.203199	  0.613851	  0.498308	  0.094146	  0.076220	  0.708607	  0.843610	  3.098885	  0.488702	
1.8545	  0.136746	  0.149256	  0.037407	  0.097933	  0.115135	  0.060537	  0.214130	  0.199139	  0.608795	  0.494728	  0.093384	  0.073900	  0.717806	  0.833148	  3.061357	  0.489262	
1.855	  0.132903	  0.144998	  0.036598	  0.097427	  0.114155	  0.060905	  0.211595	  0.195124	  0.603672	  0.491092	  0.092609	  0.071620	  0.727193	  0.822663	  3.023682	  0.489834	
1.8555	  0.129120	  0.140802	  0.035804	  0.096932	  0.113191	  0.061285	  0.209057	  0.191156	  0.598482	  0.487401	  0.091822	  0.069381	  0.736770	  0.812162	  2.985883	  0.490414	
